<svg xmlns="http://www.w3.org/2000/svg" viewBox="0 0 200 200">
  <!-- Definitions -->
  <defs>
    <!-- Gradient for the background -->
    <linearGradient id="bgGradient" x1="0%" y1="0%" x2="100%" y2="100%">
      <stop offset="0%" stop-color="#f5efff" />
      <stop offset="100%" stop-color="#e6dbff" />
    </linearGradient>
    
    <!-- Gradient for the capsule -->
    <linearGradient id="capsuleGradient" x1="0%" y1="0%" x2="100%" y2="100%">
      <stop offset="0%" stop-color="#9a7fdf" />
      <stop offset="100%" stop-color="#7d57db" />
    </linearGradient>
    
    <!-- Gradient for the camera lens -->
    <radialGradient id="lensGradient" cx="50%" cy="50%" r="50%" fx="25%" fy="25%">
      <stop offset="0%" stop-color="#ffffff" stop-opacity="0.9" />
      <stop offset="70%" stop-color="#c0b9ff" stop-opacity="0.8" />
      <stop offset="100%" stop-color="#a78df0" stop-opacity="0.9" />
    </radialGradient>
    
    <!-- Shimmer effect -->
    <linearGradient id="shimmerGradient" x1="0%" y1="0%" x2="100%" y2="0%">
      <stop offset="0%" stop-color="rgba(255,255,255,0)" />
      <stop offset="50%" stop-color="rgba(255,255,255,0.6)" />
      <stop offset="100%" stop-color="rgba(255,255,255,0)" />
      <animate attributeName="x1" from="-100%" to="100%" dur="2s" repeatCount="indefinite" />
      <animate attributeName="x2" from="0%" to="200%" dur="2s" repeatCount="indefinite" />
    </linearGradient>
    
    <!-- Drop shadow -->
    <filter id="dropShadow" x="-20%" y="-20%" width="140%" height="140%">
      <feGaussianBlur in="SourceAlpha" stdDeviation="4" />
      <feOffset dx="0" dy="3" result="offsetblur" />
      <feComponentTransfer>
        <feFuncA type="linear" slope="0.4" />
      </feComponentTransfer>
      <feMerge>
        <feMergeNode />
        <feMergeNode in="SourceGraphic" />
      </feMerge>
    </filter>
    
    <!-- Inner shadow -->
    <filter id="innerShadow" x="-50%" y="-50%" width="200%" height="200%">
      <feGaussianBlur in="SourceAlpha" stdDeviation="3" result="blur" />
      <feOffset dx="0" dy="0" />
      <feComposite in2="SourceAlpha" operator="arithmetic" k2="-1" k3="1" result="shadowDiff" />
      <feFlood flood-color="#4a3c7a" flood-opacity="0.3" result="shadowColor" />
      <feComposite in="shadowColor" in2="shadowDiff" operator="in" result="shadow" />
      <feComposite in="SourceGraphic" in2="shadow" operator="over" />
    </filter>
    
    <!-- Clip path for the hexagon -->
    <clipPath id="hexClip">
      <path d="M100,30 L155,60 L155,140 L100,170 L45,140 L45,60 Z" />
    </clipPath>
  </defs>
  
  <!-- Background hexagon -->
  <path d="M100,30 L155,60 L155,140 L100,170 L45,140 L45,60 Z" 
        fill="url(#bgGradient)" 
        stroke="#c7b6ff" 
        stroke-width="2" 
        filter="url(#dropShadow)" />
  
  <!-- Scanning tech pattern -->
  <g clip-path="url(#hexClip)">
    <!-- Tech circuit lines -->
    <g stroke="#d8ccff" stroke-width="0.7" stroke-opacity="0.5">
      <path d="M30,70 H170" />
      <path d="M30,90 H170" />
      <path d="M30,110 H170" />
      <path d="M30,130 H170" />
      <path d="M60,30 V170" />
      <path d="M80,30 V170" />
      <path d="M100,30 V170" />
      <path d="M120,30 V170" />
      <path d="M140,30 V170" />
    </g>
    
    <!-- Digital nodes -->
    <circle cx="60" cy="70" r="2" fill="#a78df0" />
    <circle cx="100" cy="70" r="2" fill="#a78df0" />
    <circle cx="140" cy="70" r="2" fill="#a78df0" />
    <circle cx="80" cy="90" r="2" fill="#a78df0" />
    <circle cx="120" cy="90" r="2" fill="#a78df0" />
    <circle cx="60" cy="110" r="2" fill="#a78df0" />
    <circle cx="100" cy="110" r="2" fill="#a78df0" />
    <circle cx="140" cy="110" r="2" fill="#a78df0" />
    <circle cx="80" cy="130" r="2" fill="#a78df0" />
    <circle cx="120" cy="130" r="2" fill="#a78df0" />
    
    <!-- Scan line -->
    <rect x="45" y="95" width="110" height="10" fill="url(#shimmerGradient)" opacity="0.5">
      <animate attributeName="y" values="50;150;50" dur="3s" repeatCount="indefinite" />
    </rect>
  </g>
  
  <!-- Central elements -->
  <g filter="url(#innerShadow)">
    <!-- Capsule shape -->
    <rect x="70" y="75" width="60" height="50" rx="25" ry="25" fill="url(#capsuleGradient)" />
    
    <!-- Camera/scanner lens -->
    <circle cx="100" cy="100" r="16" fill="url(#lensGradient)" stroke="#8a71c9" stroke-width="2" />
    <circle cx="100" cy="100" r="12" fill="none" stroke="rgba(255,255,255,0.7)" stroke-width="1" />
    <circle cx="100" cy="100" r="8" fill="none" stroke="rgba(255,255,255,0.7)" stroke-width="1" />
    <circle cx="100" cy="100" r="4" fill="#7d57db" />
    <circle cx="96" cy="96" r="2" fill="white" opacity="0.8" />
  </g>
  
  <!-- Brand name element -->
  <g transform="translate(100, 145)">
    <rect x="-40" y="-10" width="80" height="20" rx="10" ry="10" fill="#9a7fdf" opacity="0.9" />
    <text x="0" y="4" font-family="Arial, sans-serif" font-size="12" font-weight="bold" fill="white" text-anchor="middle">MediScan</text>
  </g>
  
  <!-- Decorative elements -->
  <g opacity="0.7">
    <!-- Corner diamonds -->
    <path d="M45,60 L40,65 L45,70 L50,65 Z" fill="#c596e5" />
    <path d="M155,60 L150,65 L155,70 L160,65 Z" fill="#c596e5" />
    <path d="M45,140 L40,135 L45,130 L50,135 Z" fill="#c596e5" />
    <path d="M155,140 L150,135 L155,130 L160,135 Z" fill="#c596e5" />
  </g>
</svg>